<svg xmlns="http://www.w3.org/2000/svg" viewBox="0 0 523 698">
<g transform="translate(0,698) scale(0.1,-0.1)" fill="#000000">
<path d="M452 3683 l3 -438 27 -58 c15 -32 53 -85 85 -118 56 -59 199 -161 294 -209 l46 -23 69 38 c180 100 304 209 352 312 l27 58 3 438 4 437 -457 0 -456 0 3 -437z m868 -10 l0 -418 -25 -53 c-44 -95 -171 -207 -331 -291 l-62 -33 -73 42 c-165 94 -270 188 -314 283 l-25 52 0 411 c0 226 3 413 6 417 4 3 190 6 415 7 l409 0 0 -417z"/>
<path d="M529 4043 c0 -5 0 -183 1 -398 2 -450 -1 -436 97 -533 57 -57 159 -129 239 -170 l41 -21 76 44 c146 83 247 176 282 257 12 30 15 104 15 430 l1 393 -376 3 c-206 1 -375 -1 -376 -5z m421 -148 l0 -85 70 0 70 0 0 -45 0 -44 -67 -3 -68 -3 -3 -142 c-1 -82 1 -143 7 -143 15 0 21 41 21 153 l0 107 55 0 55 0 0 -120 c0 -159 -16 -192 -105 -210 -27 -5 -30 -10 -33 -47 -3 -37 -8 -44 -47 -67 -24 -14 -45 -26 -47 -26 -2 0 -3 30 -3 67 0 66 0 67 -30 73 -89 19 -105 51 -105 210 l0 120 55 0 55 0 0 -107 c0 -112 6 -153 21 -153 6 0 8 61 7 143 l-3 142 -67 3 -68 3 0 44 0 45 70 0 70 0 0 60 c0 58 1 60 38 84 20 14 40 25 45 25 4 1 7 -37 7 -84z m-159 -752 c0 -10 2 -26 4 -35 2 -10 -1 -20 -6 -24 -5 -3 -9 8 -9 25 0 25 -3 29 -17 24 -16 -6 -16 -5 -4 10 17 22 31 22 32 0z m87 0 c-1 -10 1 -23 5 -29 10 -17 -18 -37 -41 -30 -15 5 -19 14 -17 39 2 18 3 33 4 35 1 1 13 2 27 2 18 0 24 -5 22 -17z m85 -15 c5 -39 -1 -54 -16 -39 -6 6 -19 11 -30 11 -17 0 -17 2 3 30 27 38 37 38 43 -2z m87 22 c0 -5 -6 -7 -14 -4 -8 3 -17 1 -21 -5 -3 -7 2 -11 14 -11 28 0 36 -19 17 -38 -31 -31 -73 20 -46 53 14 17 50 20 50 5z"/>
<path d="M740 3559 c0 -102 3 -120 20 -142 50 -64 240 -64 290 0 17 23 20 40 20 142 l0 117 -35 0 -35 0 0 -98 c0 -149 -31 -199 -113 -184 -62 12 -72 33 -74 164 l-2 115 -36 1 -35 1 0 -116z"/>
<path d="M840 3140 c0 -5 5 -10 10 -10 6 0 10 5 10 10 0 6 -4 10 -10 10 -5 0 -10 -4 -10 -10z"/>
<path d="M845 3100 c4 -6 11 -8 16 -5 14 9 11 15 -7 15 -8 0 -12 -5 -9 -10z"/>
<path d="M930 3119 c0 -5 5 -7 10 -4 6 3 10 8 10 11 0 2 -4 4 -10 4 -5 0 -10 -5 -10 -11z"/>
<path d="M1010 3110 c0 -5 7 -10 15 -10 8 0 15 5 15 10 0 6 -7 10 -15 10 -8 0 -15 -4 -15 -10z"/>
<path d="M3860 3971 c-89 -21 -149 -72 -176 -153 -21 -65 -16 -197 10 -252 47 -95 144 -144 260 -132 79 8 141 46 180 109 25 41 30 61 34 133 7 139 -33 230 -120 272 -49 24 -136 35 -188 23z m138 -91 c91 -55 98 -268 13 -345 -15 -13 -41 -20 -84 -23 -53 -3 -66 -1 -91 19 -44 34 -66 93 -66 174 0 126 53 195 150 195 28 0 58 -8 78 -20z"/>
<path d="M1586 3929 c-11 -56 -9 -59 26 -48 18 5 57 9 86 9 l53 0 -4 -197 c-2 -109 -7 -208 -11 -220 -8 -22 -7 -23 63 -23 l71 0 -10 26 c-6 15 -11 113 -11 218 l-1 191 52 3 c29 2 65 -1 81 -7 32 -11 34 -7 23 48 l-6 31 -203 0 -202 0 -7 -31z"/>
<path d="M2237 3933 c3 -19 -26 -102 -90 -255 l-94 -228 53 0 c51 0 54 2 54 25 0 13 5 36 12 50 11 25 12 25 130 25 118 0 119 0 128 -26 6 -14 10 -36 10 -50 0 -23 3 -24 61 -24 53 0 60 2 55 18 -3 9 -48 123 -100 252 l-94 235 -65 3 -64 3 4 -28z m153 -310 c0 -2 -38 -3 -85 -3 -66 0 -85 3 -85 14 0 12 20 63 71 186 10 23 14 16 55 -85 24 -60 44 -110 44 -112z"/>
<path d="M2631 3878 c29 -46 74 -118 101 -161 l50 -77 -4 -95 -3 -95 57 0 57 0 -6 90 -6 89 95 153 c52 84 98 159 102 166 5 9 -8 12 -53 12 l-60 0 -6 -34 c-4 -18 -31 -75 -60 -126 l-53 -92 -55 93 c-30 52 -58 109 -62 127 l-7 32 -69 0 -69 0 51 -82z"/>
<path d="M3225 3705 l0 -255 175 2 175 3 5 36 6 36 -129 -5 -129 -5 4 222 3 221 -55 0 -55 0 0 -255z"/>
<path d="M4314 3945 c8 -22 9 -456 1 -478 -6 -15 0 -17 58 -17 l65 0 -9 35 c-6 19 -9 63 -7 98 l3 62 49 0 50 0 53 -74 c29 -41 53 -85 53 -98 0 -22 3 -23 75 -23 l75 0 -75 102 c-41 55 -75 104 -75 107 0 3 15 13 33 21 104 49 102 210 -3 262 -49 25 -356 27 -346 3z m280 -59 c37 -15 51 -43 47 -91 -3 -54 -30 -70 -131 -73 l-90 -4 0 91 0 91 70 0 c39 0 86 -6 104 -14z"/>
<path d="M1943 3209 c3 -36 12 -68 21 -77 22 -23 85 -21 102 3 20 27 19 135 -1 135 -10 0 -15 -15 -17 -56 -2 -40 -8 -60 -20 -67 -29 -19 -48 9 -48 69 0 48 -2 54 -21 54 -21 0 -21 -4 -16 -61z"/>
<path d="M2240 3195 c0 -59 3 -75 14 -75 11 0 16 14 18 46 l3 46 34 -46 c19 -25 43 -46 53 -46 16 0 18 9 18 75 0 70 -1 75 -21 75 -20 0 -21 -4 -17 -45 3 -25 3 -45 -1 -45 -3 1 -21 21 -39 45 -49 67 -62 61 -62 -30z"/>
<path d="M2530 3195 c0 -68 2 -75 20 -75 18 0 20 7 20 75 0 68 -2 75 -20 75 -18 0 -20 -7 -20 -75z"/>
<path d="M2726 3213 c15 -32 28 -66 31 -75 3 -10 15 -18 27 -18 17 0 27 16 53 75 27 66 29 75 14 75 -12 0 -25 -19 -41 -57 l-24 -58 -25 58 c-17 40 -30 57 -42 57 -17 0 -17 -5 7 -57z"/>
<path d="M3000 3195 l0 -75 60 0 c33 0 60 4 60 10 0 6 -18 10 -40 10 -33 0 -40 3 -40 20 0 16 7 20 35 20 24 0 35 5 35 15 0 10 -11 15 -35 15 -24 0 -35 5 -35 15 0 11 11 15 40 15 29 0 40 4 40 15 0 12 -13 15 -60 15 l-60 0 0 -75z"/>
<path d="M3270 3195 c0 -60 3 -75 15 -75 8 0 15 9 15 20 0 13 7 20 20 20 11 0 25 -9 32 -20 7 -11 21 -20 31 -20 16 0 16 2 2 24 -14 21 -14 25 0 36 8 7 15 23 15 36 0 37 -26 54 -81 54 l-49 0 0 -75z m95 20 c0 -15 -8 -21 -32 -23 -30 -3 -33 -1 -33 23 0 24 3 26 33 23 24 -2 32 -8 32 -23z"/>
<path d="M3551 3256 c-21 -25 -5 -65 27 -72 47 -10 54 -14 49 -27 -2 -7 -20 -11 -46 -10 -46 2 -54 -12 -15 -27 31 -12 67 -4 89 20 24 26 5 57 -40 66 -19 3 -37 10 -40 14 -8 13 20 29 48 27 14 -1 27 3 29 8 5 17 -87 18 -101 1z"/>
<path d="M3810 3195 c0 -60 3 -75 15 -75 12 0 15 15 15 75 0 60 -3 75 -15 75 -12 0 -15 -15 -15 -75z"/>
<path d="M3980 3255 c0 -9 9 -15 25 -15 24 0 25 -3 25 -60 0 -47 3 -60 15 -60 12 0 15 13 15 60 0 57 1 60 25 60 16 0 25 6 25 15 0 12 -14 15 -65 15 -51 0 -65 -3 -65 -15z"/>
<path d="M4269 3216 c17 -29 31 -63 31 -75 0 -12 6 -21 15 -21 9 0 15 9 15 25 0 14 13 46 30 73 25 40 27 48 13 51 -10 2 -19 -2 -21 -8 -2 -6 -12 -21 -22 -33 l-18 -23 -19 32 c-10 18 -26 33 -36 33 -16 0 -15 -6 12 -54z"/>
</g>
</svg>
