<svg xmlns="http://www.w3.org/2000/svg" viewBox="25 82 150 40">
<g transform="translate(0,200) scale(0.1,-0.1)" fill="#ffffff">
<path d="M470 1134 c0 -8 -9 -14 -20 -14 -19 0 -27 19 -14 33 10 9 34 -4 34 -19z"/>
<path d="M1450 1134 c0 -17 -26 -19 -36 -3 -7 12 15 31 28 23 4 -3 8 -12 8 -20z"/>
<path d="M572 1098 c38 -4 73 -46 63 -77 -12 -38 -34 -51 -86 -51 l-49 0 0 79 c0 68 3 80 18 83 10 2 18 -3 20 -14 2 -11 14 -18 34 -20z"/>
<path d="M319 1060 l18 -40 16 40 c11 28 21 40 35 40 20 0 20 -1 -4 -62 -13 -34 -24 -63 -24 -65 0 -2 -11 -3 -24 -3 -19 0 -27 10 -45 59 -25 69 -25 71 -6 71 9 0 24 -18 34 -40z"/>
<path d="M470 1035 c0 -58 -2 -65 -20 -65 -18 0 -20 7 -20 65 0 58 2 65 20 65 18 0 20 -7 20 -65z"/>
<path d="M776 1079 c18 -20 18 -21 -6 -40 -14 -10 -28 -19 -32 -19 -5 0 -8 -5 -8 -10 0 -7 7 -7 21 1 15 7 24 8 32 0 17 -17 -12 -41 -49 -41 -41 0 -74 29 -74 65 0 57 78 86 116 44z"/>
<path d="M935 1080 c9 -10 20 -40 22 -65 5 -41 4 -45 -16 -45 -17 0 -21 6 -21 33 0 41 -12 60 -36 55 -14 -2 -20 -13 -22 -46 -3 -34 -7 -42 -23 -42 -17 0 -19 7 -19 65 l0 65 48 0 c36 0 54 -5 67 -20z"/>
<path d="M1091 1080 c41 -41 13 -110 -43 -110 -38 0 -50 7 -66 37 -15 30 -14 36 10 67 25 32 70 35 99 6z"/>
<path d="M1247 1089 c4 -8 9 -8 17 0 18 18 65 13 87 -9 28 -28 29 -110 1 -110 -16 0 -20 8 -23 43 -3 37 -6 42 -28 42 -22 0 -25 -5 -28 -42 -3 -34 -7 -43 -22 -43 -15 0 -19 9 -22 43 -2 34 -7 42 -23 42 -16 0 -21 -8 -23 -42 -3 -35 -7 -43 -23 -43 -17 0 -19 7 -19 65 l0 65 49 0 c28 0 53 -5 57 -11z"/>
<path d="M1441 1035 c0 -58 -2 -65 -20 -65 -18 0 -20 7 -20 65 0 58 2 65 20 65 18 0 20 -7 20 -65z"/>
<path d="M1586 1080 c19 -22 19 -22 -40 -24 -23 -1 -30 -6 -30 -21 0 -16 7 -20 37 -20 46 -1 59 -12 34 -31 -44 -32 -116 -2 -116 48 0 31 38 68 70 68 15 0 35 -9 45 -20z"/>
<path d="M1716 1083 c16 -16 16 -17 -1 -30 -10 -7 -13 -13 -7 -13 17 0 24 -29 13 -51 -18 -32 -100 -21 -100 14 0 5 14 7 30 5 17 -3 30 -1 30 4 0 4 -8 8 -19 8 -30 0 -46 26 -33 55 14 30 61 34 87 8z"/>
<path d="M544 1045 c-4 -9 -2 -21 4 -27 16 -16 47 -5 47 17 0 26 -42 34 -51 10z"/>
<path d="M705 1050 c-3 -6 1 -7 9 -4 18 7 21 14 7 14 -6 0 -13 -4 -16 -10z"/>
<path d="M1026 1043 c-10 -26 23 -48 42 -29 8 8 12 22 9 30 -8 21 -43 20 -51 -1z"/>
<path d="M1680 1060 c0 -5 5 -10 11 -10 5 0 7 5 4 10 -3 6 -8 10 -11 10 -2 0 -4 -4 -4 -10z"/>
</g>
</svg>
